# xmcd
#
# Track frame offsets:
#	150
#	21940
#	38262
#	54602
#	74077
#	89055
#	104115
#	123650
#	139247
#	160720
#	177802
#	190740
#	206407
#	219950
#	235150
#	249030
#	266390
#	283817
#	300137
#	317455
#
# Disc length: 4463 seconds
#
# Revision: 2
# Processed by: cddbd v1.5PL3 Copyright (c) Steve Scherf et al.
# Submitted via: MusicManager 7.0.4.0 
#
DISCID=16116d14
DTITLE=Kenny Rogers - Love Songs
DYEAR=1997
DGENRE=
TTITLE0=Have I told you lately that I love you
TTITLE1=Evergreen
TTITLE2=Lucille
TTITLE3=I only have eyes for you
TTITLE4=Crazy
TTITLE5=Misty
TTITLE6=She believes in me
TTITLE7=When I fall in love
TTITLE8=Always and forever
TTITLE9=You decorated my life
TTITLE10=Ruby, don't take your love to town
TTITLE11=Unchained melody
TTITLE12=I will always love you
TTITLE13=Can't help falling in love
TTITLE14=Love me tender
TTITLE15=Endless love
TTITLE16=I swear
TTITLE17=Wind beneath my wings
TTITLE18=Lady
TTITLE19=We've got tonight
EXTD=
EXTT0=
EXTT1=
EXTT2=
EXTT3=
EXTT4=
EXTT5=
EXTT6=
EXTT7=
EXTT8=
EXTT9=
EXTT10=
EXTT11=
EXTT12=
EXTT13=
EXTT14=
EXTT15=
EXTT16=
EXTT17=
EXTT18=
EXTT19=
PLAYORDER=
